<svg width="40" height="40" viewBox="0 0 40 40" fill="none" xmlns="http://www.w3.org/2000/svg">
<path d="M29.4762 21.5314C29.4325 17.1344 33.0619 15.0255 33.2241 14.919C31.1844 11.9366 28.0066 11.5274 26.8756 11.4808C24.1733 11.2063 21.6001 13.0725 20.2292 13.0725C18.8612 13.0725 16.7431 11.521 14.5023 11.5605C11.5545 11.6043 8.83737 13.275 7.32042 15.9138C4.25902 21.2245 6.53726 29.095 9.52034 33.4052C10.9787 35.512 12.7179 37.8827 14.9997 37.7959C17.1989 37.7091 18.0286 36.3735 20.6872 36.3735C23.3457 36.3735 24.0922 37.7959 26.4184 37.7514C28.7834 37.7084 30.2827 35.6044 31.7291 33.4892C33.4034 31.0416 34.0927 28.6716 34.1336 28.5517C34.0821 28.5277 29.5235 26.7815 29.4762 21.5314Z" fill="black"/>
<path d="M25.1044 8.62825C26.3144 7.15929 27.1342 5.11812 26.9113 3.08612C25.165 3.15668 23.0512 4.24676 21.7974 5.71431C20.6742 7.01676 19.6921 9.09039 19.9552 11.0857C21.9033 11.2367 23.8901 10.0944 25.1044 8.62825Z" fill="black"/>
</svg>
