<svg width="34" height="34" viewBox="0 0 34 34" fill="none" xmlns="http://www.w3.org/2000/svg">
<g clip-path="url(#clip0_305_75)">
<path fill-rule="evenodd" clip-rule="evenodd" d="M7.3277 17C7.3277 15.8958 7.51098 14.837 7.8385 13.8441L2.10897 9.46899C0.992281 11.7361 0.363281 14.2909 0.363281 17C0.363281 19.707 0.99175 22.2599 2.10658 24.5257L7.83292 20.1421C7.50859 19.1537 7.3277 18.0989 7.3277 17Z" fill="#FBBC05"/>
<path fill-rule="evenodd" clip-rule="evenodd" d="M17.3879 6.95459C19.7867 6.95459 21.9534 7.80459 23.6558 9.19541L28.6081 4.25C25.5904 1.6227 21.7213 0 17.3879 0C10.6601 0 4.87798 3.84731 2.10938 9.469L7.83864 13.8441C9.1588 9.83689 12.9219 6.95459 17.3879 6.95459Z" fill="#EA4335"/>
<path fill-rule="evenodd" clip-rule="evenodd" d="M17.3879 27.0454C12.9222 27.0454 9.15906 24.1631 7.83891 20.1559L2.10938 24.5302C4.87798 30.1527 10.6601 34 17.3879 34C21.5401 34 25.5046 32.5255 28.4798 29.763L23.0414 25.5587C21.5069 26.5253 19.5745 27.0454 17.3879 27.0454Z" fill="#34A853"/>
<path fill-rule="evenodd" clip-rule="evenodd" d="M33.6369 17C33.6369 15.9954 33.482 14.9135 33.2498 13.9092H17.3867V20.4773H26.5178C26.0612 22.7168 24.8186 24.4383 23.0403 25.5587L28.4787 29.763C31.604 26.8624 33.6369 22.5412 33.6369 17Z" fill="#4285F4"/>
</g>
<defs>
<clipPath id="clip0_305_75">
<rect width="34" height="34" fill="white"/>
</clipPath>
</defs>
</svg>
