<svg width="660" height="157" viewBox="0 0 660 157" fill="none" xmlns="http://www.w3.org/2000/svg">
<path fill-rule="evenodd" clip-rule="evenodd" d="M10.3174 46.6094C10.3174 39.8322 15.8124 34.3438 22.583 34.3438H61.833C68.6102 34.3438 74.0986 39.8388 74.0986 46.6094V71.1406C74.0986 77.9178 68.6036 83.4062 61.833 83.4062H22.583C19.33 83.4062 16.2102 82.114 13.9099 79.8137C11.6097 77.5135 10.3174 74.3937 10.3174 71.1406V46.6094ZM88.8174 56.4219C88.8174 49.6447 94.3124 44.1562 101.083 44.1562H135.427C142.197 44.1562 147.692 49.6513 147.692 56.4219V110.391C147.692 117.161 142.197 122.656 135.427 122.656H101.083C97.83 122.656 94.7102 121.364 92.4099 119.064C90.1096 116.763 88.8174 113.644 88.8174 110.391V56.4219ZM20.1299 105.484C20.1299 98.7072 25.6249 93.2188 32.3955 93.2188H66.7393C73.5164 93.2188 79.0049 98.7138 79.0049 105.484V120.203C79.0049 126.974 73.5099 132.469 66.7393 132.469H32.3955C29.1425 132.469 26.0227 131.176 23.7224 128.876C21.4222 126.576 20.1299 123.456 20.1299 120.203V105.484Z" fill="black"/>
<path d="M591.153 48.4586C593.387 48.4586 595.302 49.2166 596.898 50.7327C598.494 52.1689 599.332 54.0041 599.412 56.2383V68.3266C599.332 71.5981 599.531 74.6301 600.01 77.4228C600.569 80.1357 601.845 82.5694 603.84 84.7237C605.835 86.8781 608.348 88.0351 611.38 88.1946H643.337V56.4776C643.337 54.2435 644.135 52.4083 645.73 50.972C647.406 49.456 649.361 48.698 651.595 48.698C656.383 49.0969 659.016 51.6902 659.494 56.4776V95.4955C659.494 101.879 658.617 107.903 656.861 113.568C655.265 118.595 652.632 122.824 648.962 126.255C645.371 129.766 640.783 131.681 635.198 132H593.786C591.632 131.92 589.797 131.122 588.281 129.606C586.845 128.17 586.086 126.375 586.007 124.22C586.007 121.986 586.725 120.071 588.161 118.475C589.677 116.88 591.552 116.042 593.786 115.962H631.129C634.161 115.802 636.674 114.645 638.669 112.491C640.664 110.337 641.94 107.823 642.499 104.951C642.579 104.711 642.619 104.472 642.619 104.233H607.311C601.726 103.914 597.098 102.038 593.427 98.6074C589.837 95.0966 587.243 90.8277 585.648 85.8009C584.132 80.7741 583.334 75.428 583.254 69.7629V56.2383C583.334 54.0839 584.132 52.2886 585.648 50.8524C587.164 49.3363 588.999 48.5384 591.153 48.4586Z" fill="black"/>
<path d="M513.477 105.669C511.323 105.589 509.488 104.831 507.972 103.395C506.456 101.879 505.658 100.044 505.578 97.8892V81.7315H491.814C489.58 81.7315 487.665 80.9735 486.069 79.4575C484.553 77.8617 483.795 75.9467 483.795 73.7125C483.795 71.4784 484.593 69.6033 486.189 68.0872C487.705 66.4914 489.58 65.6935 491.814 65.6935H505.578C505.817 60.9858 506.615 56.4377 507.972 52.0492C509.567 47.0224 512.161 42.7934 515.751 39.3624C519.422 35.8516 524.05 33.9366 529.635 33.6174H562.908C565.062 33.6972 566.858 34.4951 568.294 36.0112C569.81 37.4474 570.608 39.2427 570.688 41.3971C570.688 43.6312 569.93 45.5462 568.413 47.142C566.977 48.7379 565.142 49.5757 562.908 49.6555H533.704C530.672 49.815 528.159 50.972 526.164 53.1264C524.169 55.2807 522.933 57.7144 522.454 60.4273C522.055 62.1827 521.815 63.9381 521.736 65.6935H562.429C564.663 65.6935 566.538 66.4914 568.054 68.0872C569.65 69.6033 570.448 71.4784 570.448 73.7125C570.448 75.9467 569.69 77.8617 568.174 79.4575C566.578 80.9735 564.663 81.7315 562.429 81.7315H521.736V97.8892C521.656 100.123 520.818 101.998 519.222 103.515C517.626 104.951 515.711 105.669 513.477 105.669Z" fill="black"/>
<path d="M463.567 48.698C465.722 48.7778 467.557 49.5757 469.073 51.0917C470.589 52.528 471.387 54.3233 471.467 56.4776V97.8893C470.988 102.677 468.355 105.27 463.567 105.669C461.333 105.669 459.378 104.951 457.703 103.515C456.107 101.999 455.309 100.123 455.309 97.8893V56.4776C455.389 54.2435 456.227 52.4083 457.822 50.972C459.418 49.456 461.333 48.698 463.567 48.698ZM453.514 33.1387C453.514 30.9045 454.471 28.9896 456.386 27.3937C458.301 25.7979 460.615 25 463.328 25C466.041 25 468.355 25.7979 470.27 27.3937C472.185 28.9896 473.142 30.9045 473.142 33.1387C473.142 35.4526 472.185 37.4075 470.27 39.0034C468.355 40.5992 466.041 41.3971 463.328 41.3971C460.615 41.3971 458.301 40.5992 456.386 39.0034C454.471 37.4075 453.514 35.4526 453.514 33.1387Z" fill="black"/>
<path d="M401.929 48.0995C406.078 48.0995 410.147 48.5783 414.137 49.5358C418.206 50.4933 422.076 51.9295 425.746 53.8445C429.417 55.6797 432.648 58.1532 435.441 61.2651C438.313 64.377 439.869 68.0872 440.109 72.396V77.4228V97.8893C439.63 102.677 436.997 105.27 432.209 105.669C429.975 105.669 428.02 104.951 426.345 103.515C424.749 101.999 423.951 100.123 423.951 97.8893V92.623V76.1063C423.791 73.6327 422.834 71.5981 421.078 70.0022C419.403 68.3266 417.488 67.0101 415.333 66.0526C413.259 65.0951 411.065 64.377 408.751 63.8982C406.517 63.4195 404.243 63.1801 401.929 63.1801C399.615 63.1801 397.301 63.4195 394.987 63.8982C392.753 64.377 390.558 65.0951 388.404 66.0526C386.329 67.0101 384.414 68.3266 382.659 70.0022C380.983 71.5981 380.066 73.6327 379.906 76.1063V92.623V97.8893C379.507 102.677 376.914 105.27 372.127 105.669C369.892 105.669 367.938 104.951 366.262 103.515C364.666 101.999 363.868 100.123 363.868 97.8893V77.4228V72.396C364.108 68.0872 365.624 64.377 368.416 61.2651C371.209 58.1532 374.44 55.6797 378.111 53.8445C381.781 51.9295 385.611 50.4933 389.601 49.5358C393.67 48.5783 397.779 48.0995 401.929 48.0995Z" fill="black"/>
<path d="M289.423 104.233C282.401 103.993 277.095 102.358 273.504 99.3255C269.914 96.2136 267.321 92.7427 265.725 88.9127C264.129 85.003 263.331 81.0533 263.331 77.0637C263.331 72.9146 264.089 68.925 265.605 65.0951C267.201 61.1853 269.794 57.7144 273.385 54.6823C277.055 51.5705 281.683 49.9746 287.268 49.8948H326.047C331.632 49.9746 336.22 51.5705 339.811 54.6823C343.481 57.7144 346.075 61.1853 347.591 65.0951C349.186 68.925 349.984 72.9146 349.984 77.0637C349.984 81.0533 349.186 85.003 347.591 88.9127C345.995 92.7427 343.402 96.2136 339.811 99.3255C336.22 102.358 330.914 103.993 323.893 104.233H289.423ZM286.79 65.9329C285.274 65.9329 283.957 66.5712 282.84 67.8479C281.723 69.0447 280.885 70.481 280.327 72.1566C279.848 73.7524 279.608 75.3482 279.608 76.9441C279.608 78.6197 279.848 80.2953 280.327 81.9709C280.885 83.5667 281.723 85.003 282.84 86.2796C283.957 87.4765 285.274 88.1148 286.79 88.1946H326.526C328.042 88.1148 329.358 87.4765 330.475 86.2796C331.592 85.003 332.39 83.5667 332.869 81.9709C333.428 80.2953 333.707 78.6197 333.707 76.9441C333.707 75.3482 333.428 73.7524 332.869 72.1566C332.39 70.481 331.592 69.0447 330.475 67.8479C329.358 66.5712 328.042 65.9329 326.526 65.9329H286.79Z" fill="black"/>
<path d="M166.505 41.6364C166.505 39.4023 167.263 37.5272 168.779 36.0112C170.375 34.4153 172.29 33.6174 174.524 33.6174H244.182C246.416 33.6174 248.331 34.3754 249.927 35.8915C251.443 37.4873 252.201 39.4023 252.201 41.6364C252.201 43.8706 251.443 45.7457 249.927 47.2617C249.448 47.7405 248.969 48.1394 248.49 48.4586L197.743 87.9552H244.182C246.416 87.9552 248.331 88.7133 249.927 90.2293C251.443 91.8251 252.201 93.7401 252.201 95.9743C252.201 98.2084 251.403 100.123 249.807 101.719C248.291 103.235 246.416 103.993 244.182 103.993H174.524C172.29 103.993 170.415 103.195 168.899 101.6C167.303 100.084 166.505 98.2084 166.505 95.9743C166.505 93.8997 167.183 92.1044 168.54 90.5884H168.42L168.899 90.2293C169.377 89.7505 169.896 89.3516 170.455 89.0324L221.8 49.6555H174.524C172.29 49.6555 170.415 48.8576 168.899 47.2617C167.303 45.7457 166.505 43.8706 166.505 41.6364Z" fill="black"/>
</svg>
